<svg version="1.1" id="Layer_1" xmlns="http://www.w3.org/2000/svg" xmlns:xlink="http://www.w3.org/1999/xlink" x="0px" y="0px"
	 width="100%" viewBox="0 0 1024 1024" enable-background="new 0 0 1024 1024" xml:space="preserve">
<path fill="#000000" opacity="1.000000" stroke="none" 
	d="
M261.354004,738.849060 
	C261.255066,741.653809 261.611938,744.040222 264.739532,743.385681 
	C283.277130,739.505859 301.175110,743.260559 319.018036,747.722900 
	C340.434082,753.078857 361.365967,750.557129 381.904083,743.566528 
	C386.463470,742.014709 388.167297,743.062195 389.273193,747.416199 
	C390.211151,751.108826 391.703491,754.684998 393.210175,758.201477 
	C394.567017,761.368286 393.699036,763.116333 390.535034,764.305481 
	C377.390259,769.245300 363.990997,772.890869 349.945892,774.419800 
	C332.689056,776.298279 316.064423,773.089050 299.535583,769.106323 
	C279.088196,764.179565 259.206146,766.791504 239.429779,772.512756 
	C237.067871,773.196045 234.797089,774.423035 231.865631,773.932007 
	C230.863220,769.536255 232.983124,765.528259 233.777359,761.457581 
	C238.044189,739.589172 235.673386,718.039551 231.253433,696.544800 
	C225.788177,669.966614 228.376816,644.305237 239.289856,619.360962 
	C254.984299,583.487671 274.984009,550.478271 302.429749,522.286377 
	C310.817383,513.670776 320.034180,505.998047 329.596741,498.727600 
	C331.296539,497.435181 332.883942,495.994965 334.353149,494.765350 
	C334.027588,492.411774 332.429840,491.654877 331.111572,490.706818 
	C303.188171,470.625366 282.968018,443.998718 266.155792,414.446716 
	C264.232941,411.066833 265.104401,409.308594 268.609741,408.152222 
	C272.086823,407.005188 275.636139,405.906097 278.870667,404.237244 
	C283.151550,402.028473 285.342926,403.580963 287.660706,407.300293 
	C300.474060,427.861725 314.563812,447.454132 332.626801,463.842987 
	C341.538879,471.929077 351.177795,479.008453 361.895905,484.603271 
	C366.236664,486.869202 370.262329,486.800354 374.809814,485.192230 
	C386.580872,481.029633 397.829865,475.475098 409.953186,472.251282 
	C425.544067,468.105347 440.790192,467.902222 455.750641,474.962769 
	C462.825104,478.301605 467.749481,474.799011 467.808624,466.872009 
	C467.821045,465.206207 467.767578,463.528778 467.940460,461.877228 
	C468.832489,453.354309 471.519073,450.537811 480.004150,449.267303 
	C482.307373,448.922394 484.676300,448.979706 486.962189,448.562531 
	C493.436127,447.381012 496.212402,442.261078 492.788422,436.947571 
	C481.401031,419.275940 483.204712,401.219147 490.845184,382.998108 
	C494.383331,374.560272 498.399506,366.320618 502.286865,358.032349 
	C504.377411,353.575012 504.618042,349.454468 502.442291,344.713318 
	C492.797546,323.696472 478.243408,306.489105 461.296539,291.193878 
	C438.728180,270.825043 413.616302,254.479904 385.228485,243.134186 
	C362.212982,233.935593 338.968719,231.113846 314.868469,237.690842 
	C298.683044,242.107910 282.369324,245.029709 265.518463,242.229630 
	C262.671875,241.756592 260.758331,242.761993 261.259827,245.957520 
	C264.234589,264.911957 259.577881,282.982025 255.210342,301.141510 
	C250.347305,321.361145 253.807465,340.803345 261.494934,359.735260 
	C262.559845,362.357819 263.656982,364.967377 264.701080,367.598083 
	C264.807220,367.865509 264.649414,368.237701 264.524963,369.377533 
	C258.785400,371.377228 252.708862,373.509644 246.620377,375.607361 
	C244.450668,376.354889 243.625656,374.773102 242.854172,373.257172 
	C230.480347,348.942596 225.310013,323.441406 230.497665,296.331909 
	C233.496246,280.662109 237.665222,265.201569 236.771362,248.974976 
	C236.173782,238.126892 234.526535,227.480347 232.256256,216.898560 
	C231.877945,215.135132 231.301895,213.429459 231.659271,211.634995 
	C234.206543,210.750000 236.151382,212.027985 238.137436,212.631226 
	C261.203522,219.637436 284.404999,219.972229 307.624817,213.723999 
	C335.766785,206.151260 362.845520,209.135071 389.598846,220.198730 
	C429.168945,236.562698 463.866425,259.813171 492.778168,291.447723 
	C498.720367,297.949524 503.832825,305.209412 509.333160,312.115540 
	C510.241394,313.255859 510.777557,314.799072 512.615234,315.132080 
	C514.873657,313.681061 516.105957,311.247742 517.640381,309.125763 
	C536.885132,282.511414 561.487976,261.840820 589.066101,244.422028 
	C592.094849,242.509018 593.611877,243.383453 594.643799,246.388382 
	C594.697815,246.545624 594.786560,246.691467 594.835266,246.849915 
	C596.350830,251.775360 599.319153,256.800293 598.993958,261.602051 
	C598.619751,267.128479 591.702515,268.070374 587.708496,271.001251 
	C566.766235,286.368896 547.363586,303.225403 532.630676,324.916138 
	C529.057495,330.176880 526.182861,335.789459 523.375244,341.473602 
	C520.486816,347.321503 520.728333,352.842865 523.511841,358.708435 
	C528.435364,369.083496 533.596008,379.385132 536.702087,390.523193 
	C541.084045,406.236633 540.672974,421.386108 532.088867,435.862518 
	C527.906677,442.915405 531.158447,448.295258 539.376465,448.762177 
	C552.309814,449.497040 555.155151,452.510559 555.345032,465.674561 
	C555.476807,474.810211 560.394165,478.304810 568.469971,474.628387 
	C586.901428,466.237823 605.108337,468.673615 623.352844,475.215240 
	C632.130493,478.362488 640.499573,482.506561 649.365723,485.471619 
	C653.712280,486.925201 657.416931,486.636383 661.331848,484.652069 
	C677.458313,476.478241 691.125488,465.135773 703.211731,451.857422 
	C727.238098,425.461487 745.665222,395.499359 759.170837,362.516205 
	C768.958008,338.614136 770.690369,314.166748 763.608398,289.162628 
	C759.522522,274.736420 758.373962,260.042206 760.628174,245.145493 
	C760.768921,244.215088 760.509644,243.224121 760.423218,242.086060 
	C756.332520,241.472778 752.665771,242.930923 748.902649,243.132477 
	C738.818054,243.672592 728.948914,242.248932 719.196106,239.932510 
	C704.919922,236.541748 690.690369,233.140549 675.803467,234.122375 
	C663.179016,234.955002 651.187622,238.224579 639.570068,242.960953 
	C635.860718,244.473236 634.129517,243.794189 633.133301,239.866608 
	C632.112976,235.843628 630.671265,231.908096 629.149475,228.038330 
	C628.082031,225.323853 628.596741,223.820343 631.339600,222.558136 
	C658.531799,210.044907 686.579407,205.678635 715.933533,213.444504 
	C737.994324,219.280869 759.993835,219.669724 781.988586,213.059540 
	C784.432861,212.324951 786.884766,210.829773 790.113892,212.074463 
	C789.094971,217.248596 788.138367,222.415771 787.054382,227.556107 
	C783.032227,246.629730 783.248108,265.698822 788.479919,284.423676 
	C797.482971,316.645905 791.989990,347.047791 778.225464,376.635071 
	C775.477844,382.541199 775.450439,382.698029 781.772949,385.179626 
	C802.809082,393.436279 822.002869,404.448944 837.345337,421.439514 
	C845.424927,430.387024 851.928162,440.482849 858.648193,450.407166 
	C869.507629,466.444611 883.618530,478.884460 900.062378,488.862823 
	C901.446472,489.702728 903.159607,490.189758 903.793823,492.022675 
	C903.427856,493.966522 901.619995,494.390320 900.264404,495.197327 
	C881.446960,506.400024 866.064758,521.192261 854.519714,539.774414 
	C838.175171,566.081787 816.286987,585.674438 787.279236,597.124634 
	C782.956787,598.830872 780.565552,598.369629 778.741638,593.994934 
	C777.144104,590.162842 775.109802,586.499146 773.081787,582.865356 
	C771.854553,580.666321 771.947998,579.099304 774.414978,578.096802 
	C801.305359,567.169617 820.345215,547.501465 835.839172,523.627563 
	C843.126831,512.398315 852.342346,502.719849 862.878357,494.371490 
	C863.507507,493.872925 863.956238,493.146667 864.578186,492.422424 
	C864.220093,491.755127 864.059265,490.998749 863.593628,490.653839 
	C847.882629,479.015808 837.089478,463.102814 826.210022,447.333923 
	C812.559875,427.549011 793.520630,414.968048 772.058289,405.275665 
	C767.283325,403.119354 765.165100,404.453827 762.742310,408.607880 
	C748.314636,433.345886 731.306763,456.121002 710.176086,475.602966 
	C704.671814,480.677826 698.769775,485.321198 693.052429,490.165039 
	C691.812317,491.215668 690.150879,491.880066 689.644836,494.181488 
	C695.387329,498.861053 701.423401,503.511475 707.162292,508.503448 
	C730.707581,528.984314 749.034912,553.617554 764.062683,580.802002 
	C772.769592,596.552307 781.420715,612.369507 787.189148,629.497864 
	C794.611450,651.537415 794.952271,673.933655 789.821533,696.513672 
	C786.229187,712.322998 784.072266,728.265564 785.236572,744.544312 
	C785.784485,752.206055 787.283142,759.692078 788.809021,767.188721 
	C789.227356,769.243896 790.170898,771.279480 789.561218,773.335388 
	C788.308777,774.429077 787.173340,773.813354 786.126221,773.443726 
	C762.296570,765.032471 738.335693,764.553101 713.937134,771.209534 
	C689.327148,777.923584 665.055054,775.549072 641.375366,766.471741 
	C618.165588,757.574524 595.381470,747.810974 574.754456,733.633118 
	C552.034241,718.016724 532.320740,699.275879 515.615906,677.355530 
	C514.908997,676.427979 514.214172,675.488770 513.456909,674.603516 
	C513.143005,674.236511 512.679565,673.997437 512.244507,673.670410 
	C509.882202,673.872253 509.042572,675.856567 507.941193,677.433838 
	C489.035095,704.510010 464.973541,725.979309 436.750397,742.916382 
	C431.649414,745.977417 431.254059,745.801758 429.059601,740.054993 
	C427.634369,736.322693 426.501831,732.469055 424.909973,728.812683 
	C423.551819,725.692993 424.522949,724.134827 427.295105,722.427612 
	C448.144012,709.588379 466.986908,694.327454 482.694672,675.425476 
	C490.497131,666.036377 497.240021,655.957764 502.096832,644.675842 
	C503.500122,641.416138 503.657349,638.473999 502.343445,635.094238 
	C497.397919,622.373169 490.962616,610.265381 486.927521,597.169189 
	C481.663361,580.083923 481.161163,563.536255 490.984924,547.608704 
	C494.698578,541.587708 491.840729,537.219604 484.802429,537.090210 
	C483.469421,537.065674 482.135010,537.082642 480.803253,537.029846 
	C471.968048,536.679504 468.081390,532.828735 467.687500,524.055664 
	C467.028381,509.374878 464.920898,508.026947 451.282379,513.469604 
	C434.145447,520.308350 417.271515,517.882568 400.589111,511.782013 
	C392.146362,508.694519 383.751007,505.443024 375.495941,501.889893 
	C370.741425,499.843506 366.461670,500.353577 362.103760,502.584930 
	C346.500244,510.574493 332.960510,521.362122 321.055786,534.069580 
	C299.361298,557.226929 282.024506,583.422241 268.492950,612.106140 
	C260.034424,630.036255 254.044281,648.659851 254.368988,668.778381 
	C254.550079,679.999573 257.242584,690.876770 259.742981,701.731323 
	C262.546448,713.901428 263.072754,726.099060 261.354004,738.849060 
M760.693420,718.260132 
	C761.418579,708.259094 763.800903,698.553223 766.041077,688.832092 
	C769.977905,671.748047 769.954285,654.598328 764.512878,638.033386 
	C750.384033,595.022156 726.623047,557.846680 694.315063,526.175537 
	C685.606750,517.638916 675.814453,510.443695 665.238770,504.297882 
	C659.311890,500.853699 653.626709,499.488800 646.817505,502.236786 
	C636.021851,506.593567 625.373352,511.435364 614.099487,514.513916 
	C599.095520,518.611145 583.910217,519.735107 569.788513,512.252441 
	C561.114624,507.656464 554.690735,512.985596 555.164673,521.557068 
	C555.807495,533.181763 552.437500,536.241028 540.762634,536.990295 
	C539.932007,537.043640 539.097656,537.038696 538.265015,537.060120 
	C531.064331,537.245667 528.551880,541.335693 531.672241,548.002441 
	C533.576172,552.070312 535.873169,555.950806 537.180481,560.292603 
	C540.891235,572.616760 538.975647,584.645935 535.436890,596.626221 
	C532.123413,607.843750 526.531799,618.152039 522.601990,629.127502 
	C520.147705,635.981812 520.575623,642.341492 523.910706,648.851257 
	C528.502747,657.814514 534.107666,666.092102 540.635315,673.652832 
	C568.338257,705.739807 602.332764,728.698059 642.265930,742.891418 
	C660.957764,749.535095 680.104736,752.311646 699.726196,748.505371 
	C718.647217,744.834900 737.302307,739.213074 756.939819,742.781738 
	C760.057312,743.348206 760.865784,741.467896 760.877136,738.591553 
	C760.902710,732.108826 759.657654,725.640320 760.693420,718.260132 
M522.844482,526.704651 
	C524.401245,525.347046 526.269897,525.697998 528.088928,525.730530 
	C539.173157,525.928711 545.135742,520.003113 544.782471,508.919647 
	C544.697693,506.258545 545.190552,504.219116 547.176819,502.234131 
	C554.833191,494.582611 561.133972,493.616119 571.012390,498.683167 
	C583.229187,504.949677 595.160522,503.592499 606.628052,496.726868 
	C611.013977,494.101013 610.928345,492.139709 606.410400,489.576843 
	C594.651672,482.906525 582.581970,481.477112 570.321899,488.290466 
	C567.791138,489.696899 565.123962,490.571777 562.329285,490.993103 
	C554.433960,492.183289 544.740967,484.791718 544.866089,477.787903 
	C545.075562,466.067535 538.699219,459.820435 526.971680,460.512787 
	C524.757019,460.643524 523.236206,460.121033 521.648132,458.618805 
	C512.845215,450.291504 511.476013,442.205078 517.634216,431.813416 
	C526.721130,416.479736 523.970032,401.848938 515.190308,387.611542 
	C512.758484,383.667969 511.062744,383.685608 508.633789,387.635071 
	C499.929260,401.788544 496.374146,416.298096 505.868835,431.720276 
	C509.421875,437.491455 510.446625,443.824493 507.931427,450.404083 
	C505.959534,455.562317 500.010559,460.734039 496.343140,460.486481 
	C484.823914,459.709015 477.675140,466.808350 478.438202,478.396362 
	C478.562164,480.279114 478.639160,481.827606 477.229340,483.440460 
	C470.375366,491.281647 462.153259,493.247040 453.172791,488.211243 
	C446.255798,484.332550 439.006683,483.351196 431.459473,484.361755 
	C424.376587,485.310089 417.674042,487.496185 412.577179,493.475220 
	C413.640900,494.455566 414.263794,495.265350 415.080322,495.746704 
	C427.253326,502.922791 439.760559,505.606262 452.904846,498.294891 
	C458.173218,495.364410 463.589539,494.793091 469.244080,496.985992 
	C474.943207,499.196198 478.418396,504.203552 478.341766,510.072449 
	C478.222961,519.169373 484.873169,525.851990 494.016876,525.860657 
	C495.983154,525.862549 498.005585,525.250671 499.894623,526.315063 
	C508.681641,531.266418 511.511780,541.504883 505.371399,549.853271 
	C494.593231,564.507019 499.774445,583.803284 508.612885,595.933228 
	C510.576660,598.628357 512.409424,598.833496 514.394714,595.925110 
	C518.780029,589.500488 521.842896,582.579407 522.748962,574.779907 
	C523.840759,565.381531 522.375610,556.737915 517.010742,548.581177 
	C512.021606,540.995667 513.012329,536.489258 519.448364,530.087219 
	C520.392944,529.147644 521.321960,528.192383 522.844482,526.704651 
z"/>
<path fill="#000000" opacity="1.000000" stroke="none" 
	d="
M165.156158,497.825165 
	C178.731796,509.476776 188.550674,523.795532 198.376419,538.060242 
	C210.351227,555.445007 226.412750,567.709595 245.313522,576.565674 
	C251.290588,579.366211 251.322067,579.302856 248.186356,585.273743 
	C246.637268,588.223389 244.762878,591.050354 243.605576,594.145935 
	C241.968353,598.525269 239.556854,598.950012 235.510147,597.237000 
	C212.948776,587.686646 193.820602,573.733582 178.961517,554.099365 
	C171.821533,544.664795 166.062622,534.260559 158.464645,525.153076 
	C148.431534,513.126648 136.518723,503.348114 123.049736,495.416718 
	C122.051888,494.829102 121.074272,494.202332 120.126534,493.537781 
	C119.883408,493.367249 119.790215,492.982941 119.602303,492.651306 
	C119.776550,490.612946 121.629684,490.221954 122.976875,489.407990 
	C140.947067,478.550934 155.949753,464.578552 167.238419,446.823151 
	C182.105728,423.439056 200.716202,404.056000 226.094498,392.114502 
	C252.870453,379.515381 280.856415,370.459412 309.902496,364.705933 
	C330.311890,360.663208 350.788788,359.429260 371.392853,363.039917 
	C374.338776,363.556122 377.231934,364.375458 380.147339,365.063538 
	C385.636353,366.358948 386.324341,365.786774 384.866119,360.506409 
	C382.553345,352.131683 381.187134,343.643341 380.595154,334.966187 
	C379.670044,321.405792 381.044800,308.088959 383.482971,294.765076 
	C385.616882,283.104004 388.907074,271.803619 392.419403,260.518158 
	C393.765198,256.193939 395.763275,255.737625 399.329407,257.754578 
	C402.226044,259.392853 405.229675,260.847412 408.220734,262.312195 
	C414.613159,265.442688 414.481567,265.385681 412.567078,272.472168 
	C406.948242,293.270111 402.942261,314.351074 403.415833,335.993835 
	C403.693726,348.695374 405.894989,361.137726 410.726562,373.020050 
	C414.168060,381.483734 419.526855,388.096039 427.531860,392.781769 
	C438.003510,398.911377 448.911835,404.384094 458.105072,412.548462 
	C465.006531,418.677490 471.113159,425.441986 475.988617,433.277496 
	C476.912842,434.762848 478.251892,436.210602 477.735535,438.735321 
	C475.001404,438.340759 473.625031,436.152832 472.115265,434.468567 
	C466.084900,427.741089 459.625214,421.533051 452.054779,416.532532 
	C448.668671,414.295868 445.007507,412.774811 441.070343,411.902954 
	C436.153351,410.814148 433.670258,412.970581 434.272247,418.011047 
	C434.752747,422.034058 436.515228,425.643646 438.495789,429.146332 
	C443.314728,437.668732 450.172363,444.481445 456.930389,451.398193 
	C458.254517,452.753479 460.169067,453.846527 460.276215,456.131592 
	C458.846649,457.640991 457.802826,456.288025 456.797821,455.668976 
	C443.749481,447.631195 433.980072,436.377899 425.696289,423.706787 
	C423.419464,420.224121 420.959229,416.776917 419.279053,413.003571 
	C412.932404,398.750458 400.724792,392.801605 386.674591,389.157379 
	C364.037048,383.285767 341.299744,383.176666 318.362091,387.254181 
	C292.357452,391.876862 267.006256,398.547272 242.956177,409.698700 
	C223.427490,418.753662 207.801758,432.255402 195.652969,450.029846 
	C185.227997,465.282227 174.824875,480.628540 159.443634,491.295593 
	C160.282791,494.815460 163.085434,495.749451 165.156158,497.825165 
z"/>
<path fill="#000000" opacity="1.000000" stroke="none" 
	d="
M410.872925,211.992218 
	C422.408112,184.774643 442.046234,165.077682 465.513214,148.607895 
	C483.611847,135.905777 498.760071,120.396439 509.473083,100.847404 
	C510.019623,99.850075 510.508331,98.731926 511.903870,98.395752 
	C513.953857,98.829796 514.479187,100.800682 515.342163,102.305550 
	C526.320801,121.450073 541.375122,136.706177 559.326172,149.387604 
	C577.816040,162.449707 594.837769,177.081833 606.141907,197.206635 
	C614.742310,212.517883 621.082642,228.825577 626.746521,245.392715 
	C633.484619,265.102142 639.447266,285.014893 641.685364,305.854034 
	C643.582397,323.518280 643.370361,341.042450 638.956177,358.376038 
	C637.085083,365.723389 637.933960,366.425812 645.126953,364.684357 
	C662.624023,360.448334 680.228943,359.812347 698.128357,362.229828 
	C712.530396,364.174957 726.591614,367.331757 740.589355,371.061462 
	C744.663635,372.147003 745.941650,373.650085 743.649170,377.568756 
	C741.552063,381.153717 739.684082,384.898376 738.029541,388.709198 
	C736.501465,392.228546 734.412903,393.130981 730.591614,392.250244 
	C715.666199,388.810089 700.642517,385.924377 685.320618,384.707428 
	C666.474182,383.210510 648.147278,385.366302 630.096985,390.983063 
	C618.579285,394.567047 610.494385,401.500031 604.993652,412.257080 
	C597.802185,426.320587 588.208374,438.677032 575.947021,448.792206 
	C572.174011,451.904785 568.472046,455.216339 563.114868,456.862183 
	C563.153015,453.414551 565.542053,452.064789 567.131042,450.491699 
	C573.421326,444.264526 579.570129,437.948639 584.309814,430.406525 
	C586.534607,426.866302 588.610229,423.229523 589.567078,419.131470 
	C590.947876,413.217224 588.087952,410.331268 582.259094,411.841064 
	C572.424805,414.388306 564.693726,420.426544 557.541199,427.295197 
	C553.632629,431.048645 549.871399,434.955444 545.545837,439.292175 
	C544.697693,435.833160 546.381409,434.026917 547.472107,432.180511 
	C555.378723,418.795593 566.562256,408.759735 579.847656,400.942383 
	C585.159851,397.816559 590.497070,394.723694 595.926514,391.808777 
	C604.276794,387.325714 609.682983,380.540039 612.862732,371.667633 
	C619.283875,353.750763 620.575500,335.377625 618.880310,316.543701 
	C616.106812,285.728333 607.729065,256.423340 595.821106,228.027924 
	C586.378052,205.510040 570.414734,188.418381 550.847900,174.319839 
	C537.709717,164.853394 525.000977,154.861069 515.061829,141.862793 
	C513.048767,139.230148 511.298492,138.819763 509.265411,141.691269 
	C499.743439,155.139832 486.532379,164.584381 473.480743,174.078415 
	C454.568817,187.835358 438.632385,204.027512 428.882141,225.611115 
	C427.232788,229.262146 425.274567,229.890335 421.978516,227.671478 
	C419.778015,226.190125 417.333282,225.062698 414.963959,223.842697 
	C407.473267,219.985596 407.467102,219.997574 410.872925,211.992218 
z"/>
<path fill="#000000" opacity="1.000000" stroke="none" 
	d="
M395.958862,742.921265 
	C386.551208,715.304688 379.783386,687.605286 380.719208,658.519226 
	C381.063538,647.817383 383.236359,637.401672 385.546509,627.001160 
	C385.897736,625.419861 386.889801,623.898132 386.245941,622.171143 
	C385.062134,620.689636 383.468658,621.116089 382.075836,621.420105 
	C350.623993,628.285339 319.854187,624.319946 289.371399,615.667053 
	C286.808502,614.939575 284.270935,614.102539 281.677795,613.507385 
	C278.626495,612.807129 277.821869,611.369019 279.395294,608.525146 
	C281.652496,604.445435 283.904999,600.347656 285.848236,596.114624 
	C287.412506,592.707214 289.740387,592.010315 293.109985,592.909180 
	C308.087585,596.904175 323.285767,599.866150 338.714294,601.267395 
	C359.818787,603.184265 380.591125,601.700439 400.716095,594.243591 
	C407.394440,591.769104 411.965271,587.536499 415.139099,581.282104 
	C423.424622,564.954834 433.470520,549.913574 447.959534,538.326050 
	C451.463226,535.523987 454.887970,532.433228 459.629669,531.002380 
	C459.881256,533.980103 457.920685,534.789062 456.747772,536.027100 
	C449.183716,544.011169 441.416962,551.817261 436.199585,561.684265 
	C434.317047,565.244507 432.678406,568.888733 432.400787,572.954529 
	C432.096497,577.410278 434.039307,578.987732 438.489868,578.102417 
	C447.164551,576.376648 453.972260,571.248657 460.378815,565.642212 
	C465.006561,561.592407 469.121979,556.959961 473.513275,552.635437 
	C474.645081,551.520874 475.421234,549.815796 477.457581,549.870972 
	C478.724915,551.557129 477.217194,552.676208 476.566986,553.849915 
	C466.754242,571.563293 451.785370,584.160767 434.049042,592.730774 
	C415.848114,601.525330 409.018707,616.512939 406.315582,634.800781 
	C400.468719,674.357666 408.620789,711.824341 422.745178,748.588379 
	C433.190765,775.777039 450.140564,797.420776 474.011536,813.979919 
	C486.772858,822.832397 498.508392,832.953857 508.181549,845.257874 
	C509.089630,846.413025 509.945190,847.708740 511.646210,848.062988 
	C512.025269,847.835388 512.572632,847.679688 512.846313,847.317383 
	C524.668030,831.663086 540.264526,820.214294 555.822449,808.728088 
	C572.813110,796.184204 585.544800,780.148438 594.454834,761.104980 
	C596.436157,756.870117 598.396729,755.955627 602.382080,758.484131 
	C605.459106,760.436279 608.869141,761.884827 612.197144,763.413330 
	C615.052856,764.725037 615.526184,766.381775 614.292542,769.367981 
	C603.672668,795.074402 587.693481,816.700134 564.993286,832.871704 
	C543.985413,847.837830 525.200073,864.706238 512.832275,887.787781 
	C512.556335,888.302795 511.890442,888.608826 511.476166,888.954163 
	C509.382263,888.372803 508.928986,886.595520 508.129150,885.222778 
	C497.473877,866.934875 483.283905,851.957581 466.156830,839.582458 
	C452.927460,830.023621 439.871124,820.265686 428.967224,807.885437 
	C416.260681,793.458557 408.671387,776.327698 401.832794,758.731384 
	C399.843689,753.613281 398.005341,748.436584 395.958862,742.921265 
z"/>
<path fill="#000000" opacity="1.000000" stroke="none" 
	d="
M284.879761,269.059174 
	C284.101807,267.033020 283.082855,265.450531 283.483887,263.236572 
	C286.146301,262.466614 288.330475,264.145111 290.360992,265.153290 
	C299.849243,269.864380 309.982727,272.350983 320.230804,274.613037 
	C333.386749,277.516876 341.767914,287.241119 342.200226,300.689026 
	C342.560852,311.907928 346.991547,320.416748 356.516205,326.494507 
	C362.398346,330.247986 366.851410,335.369202 368.669434,342.375305 
	C369.998413,347.496735 368.756409,348.800812 363.473694,347.660187 
	C356.451385,346.144012 350.924744,342.104218 346.909912,336.413055 
	C341.122314,328.208954 333.564941,323.994019 323.563416,323.089783 
	C313.697327,322.197815 304.076965,320.178284 297.778717,311.129364 
	C294.928772,307.034760 293.548645,302.448730 292.779022,297.694489 
	C291.205536,287.974487 288.982025,278.463409 284.879761,269.059174 
M312.367126,305.283386 
	C315.789856,307.845276 319.862457,307.685059 323.813599,307.975403 
	C326.487701,308.171936 327.610291,306.944183 327.732635,304.158478 
	C328.201080,293.490540 319.849060,285.813507 309.219269,287.194702 
	C307.124969,287.466827 306.221893,288.371246 306.345551,290.376862 
	C306.676422,295.743317 307.263000,301.023193 312.367126,305.283386 
z"/>
<path fill="#000000" opacity="1.000000" stroke="none" 
	d="
M727.795166,300.475769 
	C724.422058,314.012115 715.582214,320.597656 702.553223,322.280762 
	C699.589111,322.663635 696.587341,322.903992 693.681580,323.558838 
	C686.794922,325.110901 681.076843,328.394684 677.084290,334.551117 
	C672.904236,340.996643 667.500732,345.995911 659.549927,347.571960 
	C655.818115,348.311676 654.520203,347.351013 655.577515,343.490234 
	C657.398499,336.841187 660.732971,330.994537 666.268677,327.051147 
	C675.067139,320.783600 678.487183,311.976746 679.594727,301.885620 
	C681.314575,286.214874 687.957275,278.049347 703.289612,274.452606 
	C713.706726,272.008881 723.868958,269.064758 733.453613,264.263489 
	C734.485413,263.746613 735.626831,263.423370 736.747437,263.122040 
	C737.159180,263.011322 737.658081,263.224335 738.910034,263.402466 
	C733.767700,275.379669 729.881836,287.465302 727.795166,300.475769 
M703.754883,307.630737 
	C711.427246,305.190186 716.052673,297.610687 714.690552,289.858063 
	C714.423096,288.335846 713.778442,287.597137 712.224609,287.276123 
	C704.964294,285.776276 696.802368,290.835907 694.989502,298.062317 
	C692.732910,307.057770 693.842285,308.408752 703.754883,307.630737 
z"/>
<path fill="#000000" opacity="1.000000" stroke="none" 
	d="
M314.839386,662.527161 
	C318.351166,661.894226 321.440613,661.167297 324.571045,660.866272 
	C332.741760,660.080566 339.383240,656.286438 345.259308,650.832947 
	C349.386017,647.003052 354.201080,644.699280 360.548767,643.917725 
	C360.685181,649.567078 358.345642,653.975830 354.555969,656.668213 
	C345.175110,663.332581 342.416901,672.811279 341.321533,683.392029 
	C339.917511,696.953918 332.900940,705.522156 319.518219,708.563721 
	C307.594482,711.273682 296.160370,715.031738 285.282440,720.562500 
	C284.725647,720.845642 284.059998,720.914673 283.583435,721.045410 
	C282.048279,719.921021 282.794189,718.827087 283.236511,717.809143 
	C287.692444,707.555115 290.782776,696.908569 292.843170,685.917786 
	C295.133179,673.702332 301.843689,665.388672 314.839386,662.527161 
M321.681824,675.383972 
	C310.620789,677.274292 306.976593,681.407959 306.375214,692.476013 
	C306.214294,695.437622 307.181335,696.916626 310.298950,696.555908 
	C319.871307,695.448486 326.842743,692.736816 327.160187,679.991821 
	C327.257507,676.084473 326.117767,674.818665 321.681824,675.383972 
z"/>
<path fill="#000000" opacity="1.000000" stroke="none" 
	d="
M522.468018,792.423828 
	C518.168152,798.927917 515.079163,805.689270 511.932587,812.531799 
	C511.010162,812.000366 510.357147,811.858093 510.214691,811.508057 
	C505.922943,800.964294 499.546967,791.621155 493.480316,782.084167 
	C486.651642,771.349304 487.233002,760.527466 494.485077,750.346985 
	C500.500031,741.903320 505.886414,733.192688 509.689148,723.536743 
	C510.003021,722.739746 510.434448,722.052063 511.681641,721.873535 
	C515.066284,726.279175 516.117310,732.034973 519.243347,736.701294 
	C522.756958,741.946106 526.233459,747.218384 529.606445,752.554321 
	C535.995544,762.661560 535.312683,772.677307 528.964722,782.531311 
	C526.894104,785.745605 524.757996,788.917908 522.468018,792.423828 
M511.443176,780.200073 
	C521.991821,772.508728 522.066772,762.780457 511.645447,753.940674 
	C500.928284,760.804871 500.598419,771.128357 511.443176,780.200073 
z"/>
<path fill="#000000" opacity="1.000000" stroke="none" 
	d="
M522.695679,246.669922 
	C518.126038,252.600937 516.247620,259.617035 512.972229,265.719482 
	C510.475067,264.918121 510.321808,263.248627 509.788239,261.929504 
	C506.581085,254.000961 502.239929,246.727783 497.167206,239.874725 
	C487.328400,226.582901 487.250336,215.938232 496.785461,202.310593 
	C501.764465,195.194534 505.913635,187.594467 509.510162,179.687759 
	C510.172852,178.230896 510.356445,176.420731 512.074341,175.581253 
	C513.983826,175.806046 514.353210,177.486816 514.857300,178.761490 
	C518.564453,188.136063 524.119751,196.440796 529.602173,204.807114 
	C537.141968,216.313004 536.854187,226.628372 528.895508,237.757935 
	C526.860840,240.603210 524.895752,243.498230 522.695679,246.669922 
M518.485596,226.906693 
	C521.889038,219.852661 519.832275,213.449112 512.349121,207.801208 
	C504.135498,214.246506 502.275940,220.360214 506.406311,227.339432 
	C511.233643,235.496399 512.846436,235.523819 518.485596,226.906693 
z"/>
<path fill="#000000" opacity="1.000000" stroke="none" 
	d="
M749.893188,486.906403 
	C754.501221,484.141327 758.506775,481.178741 762.283081,477.886261 
	C772.256042,469.191071 785.095093,467.360321 796.573853,473.607422 
	C807.331604,479.462036 816.970825,487.278656 828.408325,491.224457 
	C828.505493,493.568451 827.206421,493.836639 826.205688,494.257141 
	C817.575439,497.883301 809.558350,502.592834 801.751099,507.728424 
	C788.085144,516.717834 776.529785,516.489197 763.465698,506.736115 
	C756.408142,501.467285 748.914795,496.974243 740.618103,493.194885 
	C743.063293,489.462006 746.841187,489.046112 749.893188,486.906403 
M788.833069,498.616882 
	C791.529846,496.562195 795.027588,495.391205 796.520752,492.031281 
	C789.023254,482.802460 779.608643,481.878479 772.400024,489.314087 
	C770.479004,491.295593 770.315063,492.781281 772.328979,494.734985 
	C776.844849,499.115906 781.848022,501.381989 788.833069,498.616882 
z"/>
<path fill="#000000" opacity="1.000000" stroke="none" 
	d="
M272.295288,497.290466 
	C266.322723,500.672546 261.009674,504.378021 255.712021,508.136444 
	C245.009964,515.728943 233.678467,516.252869 222.451035,509.612854 
	C213.157684,504.116699 204.460205,497.595917 194.139191,493.960144 
	C193.581055,493.763489 193.179642,493.122009 192.794113,492.768951 
	C193.047058,490.859192 194.572067,490.678223 195.714874,490.167267 
	C203.633423,486.626862 211.147675,482.404358 218.291275,477.465424 
	C232.069504,467.939514 244.495834,468.033508 257.940887,477.845276 
	C264.543457,482.663635 271.181030,487.361511 278.724640,490.621002 
	C279.641205,491.017059 280.547607,491.441254 280.807251,492.830688 
	C278.548157,495.008301 275.190063,495.361420 272.295288,497.290466 
M226.873230,494.922394 
	C237.350784,502.440002 243.950836,501.786316 250.968094,492.536072 
	C244.776825,482.600098 234.328018,481.549377 226.466156,489.978394 
	C224.928543,491.626923 224.470245,492.952728 226.873230,494.922394 
z"/>
<path fill="#000000" opacity="1.000000" stroke="none" 
	d="
M561.168457,334.763184 
	C553.325745,319.122131 554.511902,315.006683 569.348450,306.327637 
	C574.229675,303.472198 579.300293,300.942200 584.217224,298.145477 
	C586.965271,296.582458 588.736511,296.752350 589.844666,300.094330 
	C592.950500,309.461090 597.816345,317.995575 602.460815,326.654877 
	C608.228699,337.408813 605.167603,345.628815 593.893127,350.357056 
	C585.629456,353.822693 577.577820,357.681061 569.302979,363.304382 
	C567.726074,353.001007 565.878052,343.628021 561.168457,334.763184 
M570.756592,344.717804 
	C571.547058,346.647186 571.206238,349.075348 573.900330,350.956573 
	C578.449585,346.974426 583.990173,343.952026 588.082764,339.132599 
	C590.039612,336.828186 590.325989,333.899384 589.121521,331.122192 
	C587.470886,327.316589 585.583252,323.611938 583.736450,319.894196 
	C583.052246,318.516693 582.103699,317.410400 580.311829,317.455139 
	C571.873840,317.665833 565.544373,326.664673 568.054626,334.821930 
	C568.981201,337.833160 569.708008,340.905884 570.756592,344.717804 
z"/>
<path fill="#000000" opacity="1.000000" stroke="none" 
	d="
M464.294006,313.894531 
	C466.754791,317.326904 468.057068,320.713470 466.479736,324.492279 
	C461.330963,336.826935 453.979767,348.385193 454.235138,362.165710 
	C451.188538,362.733276 449.936707,361.114410 448.492737,360.152771 
	C442.074432,355.878357 434.940338,353.076141 427.986511,349.884003 
	C417.706268,345.165009 414.944336,337.126617 420.360901,327.023682 
	C424.366821,319.551910 429.004272,312.436676 432.031708,304.436157 
	C435.297638,295.805389 435.581726,295.620270 443.632080,300.340607 
	C450.628174,304.442810 458.285828,307.597137 464.294006,313.894531 
M434.864105,339.406891 
	C438.264221,343.341583 442.777222,345.951935 446.669464,349.303101 
	C448.853058,351.183136 450.611816,350.802826 451.437164,347.881073 
	C452.879883,342.773712 454.432404,337.689911 455.645538,332.527283 
	C456.793610,327.641632 455.156128,323.935822 450.693298,321.163269 
	C441.749634,315.606934 441.434113,315.506317 436.765198,324.764404 
	C434.562744,329.131775 431.500488,333.499939 434.864105,339.406891 
z"/>
<path fill="#000000" opacity="1.000000" stroke="none" 
	d="
M329.711670,554.803223 
	C331.261383,550.706848 332.408234,546.831848 334.230927,543.306091 
	C336.862030,538.216675 341.950500,535.849915 346.719757,537.762207 
	C358.525909,542.495911 369.255249,549.929932 383.510345,551.023865 
	C378.677734,558.341614 375.031464,564.804993 372.553131,571.847107 
	C371.339752,575.294861 370.142517,578.798218 368.442993,582.014893 
	C364.707306,589.085266 359.439148,590.754944 352.729340,586.441406 
	C344.265259,581.000122 335.583344,576.179260 325.906464,573.317200 
	C323.053894,572.473450 323.451263,570.778076 324.314850,568.668518 
	C326.144562,564.198914 327.852722,559.679504 329.711670,554.803223 
M361.885651,552.635864 
	C359.219757,551.725891 356.551727,550.822083 353.888611,549.904114 
	C351.752960,549.167908 349.541534,548.933167 347.695679,550.358826 
	C343.187927,553.840637 341.376770,559.103516 340.853424,564.260864 
	C340.485352,567.888184 345.420807,567.742798 347.876068,569.428528 
	C349.225769,570.355225 350.865692,570.847595 352.324768,571.629089 
	C355.716522,573.445923 358.589447,572.527893 360.571350,569.577271 
	C363.493317,565.227112 366.060364,560.638611 368.653046,556.358765 
	C366.810455,553.950256 364.618286,553.600159 361.885651,552.635864 
z"/>
<path fill="#000000" opacity="1.000000" stroke="none" 
	d="
M335.290375,445.785278 
	C329.017029,437.127502 327.043427,426.913330 322.551208,417.832886 
	C321.648773,416.008667 322.953827,415.011627 324.579773,414.600769 
	C334.553650,412.080444 343.333923,407.009918 352.250336,402.105896 
	C358.087524,398.895447 363.378571,400.474609 366.811768,406.365295 
	C372.223358,415.650665 374.125854,426.640106 382.258423,435.870453 
	C369.123474,437.009216 359.190735,442.497131 349.051819,447.454315 
	C344.283966,449.785461 339.728943,449.642456 335.290375,445.785278 
M351.473541,416.058838 
	C350.403168,416.513306 349.325500,416.951447 348.263519,417.424835 
	C338.678253,421.697449 337.625793,426.018951 344.159668,434.373108 
	C346.022522,436.754913 348.410309,438.316132 351.506561,437.466278 
	C356.893433,435.987701 362.265411,434.400330 367.859741,431.729370 
	C364.878510,426.951477 362.273315,422.367828 359.242340,418.085510 
	C357.648926,415.834229 355.103180,414.767914 351.473541,416.058838 
z"/>
<path fill="#000000" opacity="1.000000" stroke="none" 
	d="
M648.560547,436.484253 
	C646.767944,435.987549 645.162476,436.050049 643.810425,434.222015 
	C649.645447,426.250549 651.941223,416.405212 656.328308,407.511780 
	C659.833862,400.405151 665.810913,398.555420 672.489380,402.649567 
	C680.618958,407.633331 688.910645,412.120117 698.102112,414.793335 
	C700.518799,415.496216 701.180237,416.768066 700.105652,419.260834 
	C696.945496,426.591339 694.243225,434.126953 690.897034,441.367554 
	C687.030273,449.734741 681.202942,451.657532 672.896057,447.616913 
	C664.987366,443.770020 657.721497,438.544861 648.560547,436.484253 
M674.802429,437.623291 
	C680.596008,434.801392 682.653687,429.003723 683.140747,423.688049 
	C683.490723,419.867981 677.569214,419.418060 674.501587,417.391815 
	C673.548157,416.762024 672.350647,416.510956 671.287231,416.036560 
	C668.431152,414.762512 665.807800,415.469238 664.133118,417.805786 
	C660.974976,422.212189 658.211548,426.901520 654.900757,432.071777 
	C661.743164,434.216217 667.396851,437.489197 674.802429,437.623291 
z"/>
<path fill="#000000" opacity="1.000000" stroke="none" 
	d="
M468.300934,667.791138 
	C467.934204,671.670593 466.017944,674.147949 463.035645,675.618835 
	C454.834290,679.663696 446.541382,683.522583 438.307098,687.501465 
	C435.729279,688.747070 434.237854,687.872681 433.333679,685.340454 
	C430.180420,676.509094 425.533752,668.489319 420.426178,660.646545 
	C416.483307,654.592346 418.445709,648.549377 424.903107,645.195190 
	C426.954681,644.129578 429.171234,643.312195 431.393585,642.656860 
	C439.846130,640.164001 447.954529,636.863281 455.605530,632.173035 
	C456.228943,633.068359 456.847076,633.558655 456.919128,634.119080 
	C458.043091,642.863770 461.697235,650.677246 465.695801,658.376587 
	C467.158478,661.193054 468.454437,664.079407 468.300934,667.791138 
M447.347260,668.705261 
	C451.883148,667.030823 457.635864,665.549011 457.248901,659.785339 
	C456.820831,653.409424 454.339783,647.171265 452.621735,640.352844 
	C449.055817,642.701294 446.357849,644.575928 443.566437,646.299255 
	C432.378448,653.205872 432.239075,654.123047 438.419556,665.831360 
	C440.445374,669.669067 442.731842,671.001465 447.347260,668.705261 
z"/>
<path fill="#000000" opacity="1.000000" stroke="none" 
	d="
M630.007385,779.889038 
	C636.893311,783.468628 642.344727,788.612793 647.915161,793.526428 
	C651.498352,796.687012 650.621094,801.058594 649.321167,805.184143 
	C645.320679,817.880615 641.133789,819.340637 630.466675,811.725464 
	C623.367188,806.657349 622.341187,804.066956 625.001709,795.627930 
	C626.639160,790.433960 627.162598,784.908875 630.007385,779.889038 
z"/>
<path fill="#000000" opacity="1.000000" stroke="none" 
	d="
M384.168518,816.377319 
	C382.377258,817.194458 381.055695,817.322876 379.601532,816.332397 
	C370.897369,810.402893 370.053223,796.454895 378.119537,789.896790 
	C382.486023,786.346802 386.985809,782.960754 391.736664,779.258179 
	C394.535614,783.128113 394.504303,787.412537 395.607452,791.268433 
	C399.900391,806.273438 398.635315,808.982727 384.168518,816.377319 
z"/>
<path fill="#000000" opacity="1.000000" stroke="none" 
	d="
M197.306549,377.107727 
	C193.549347,373.937378 190.867249,370.393646 188.697311,366.421722 
	C187.222916,363.722931 187.498703,361.400848 189.705719,359.222107 
	C192.437042,356.525818 195.266998,354.000916 198.900681,352.555237 
	C204.547882,350.308472 208.224152,351.216858 212.128937,355.873688 
	C216.045944,360.545074 219.953369,365.224487 223.829315,369.857788 
	C222.289627,372.492523 219.842789,371.949707 217.925690,372.612244 
	C213.541748,374.127380 209.146194,375.608917 204.756668,377.107880 
	C202.400482,377.912476 200.053940,378.956299 197.306549,377.107727 
z"/>
<path fill="#000000" opacity="1.000000" stroke="none" 
	d="
M812.016602,375.041260 
	C807.687317,372.878693 802.901917,373.151794 798.601013,370.314392 
	C803.334412,364.031708 808.026184,358.062653 813.613525,352.916077 
	C816.141602,350.587402 819.571106,350.919220 822.606262,352.203796 
	C827.756653,354.383606 833.770203,357.413879 834.178162,362.842957 
	C834.603516,368.503723 829.799133,373.423096 825.025513,376.913666 
	C820.537292,380.195648 816.530334,376.397522 812.016602,375.041260 
z"/>
<path fill="#000000" opacity="1.000000" stroke="none" 
	d="
M822.915527,631.228638 
	C820.014526,631.405579 817.767639,630.600098 816.214783,628.752625 
	C812.383484,624.194336 808.748657,619.470825 804.044678,613.572144 
	C812.835999,612.237122 819.580627,607.512573 827.242920,607.203613 
	C833.539917,606.949768 835.256531,613.230713 837.309875,618.174377 
	C839.017029,622.284302 836.407043,624.342896 833.617859,626.367004 
	C830.495056,628.633118 827.227600,630.595154 822.915527,631.228638 
z"/>
<path fill="#000000" opacity="1.000000" stroke="none" 
	d="
M215.010254,618.930542 
	C212.720367,621.814880 210.698166,624.451355 208.584137,627.011963 
	C204.745804,631.661194 201.459976,632.449463 195.847992,630.134827 
	C194.929016,629.755798 194.033707,629.305603 193.164368,628.821899 
	C183.972321,623.707153 183.244232,616.582703 191.202148,609.527832 
	C193.151001,607.800171 195.568497,606.466187 198.033691,607.365356 
	C204.538300,609.737915 211.169220,611.725464 217.654785,613.555359 
	C218.096420,616.267517 216.182724,617.199585 215.010254,618.930542 
z"/>
<path fill="#000000" opacity="1.000000" stroke="none" 
	d="
M628.046875,197.776855 
	C627.939514,192.990845 627.793091,188.672577 628.623474,184.378555 
	C629.713257,178.743271 634.078186,174.512253 639.883606,173.982803 
	C644.352966,173.575195 647.607666,175.579590 649.355713,179.770096 
	C651.633850,185.231171 650.384705,191.486588 645.956299,194.716080 
	C640.861511,198.431473 635.233521,201.289490 629.679321,203.932297 
	C627.242188,202.282303 628.268555,200.105850 628.046875,197.776855 
z"/>
<path fill="#000000" opacity="1.000000" stroke="none" 
	d="
M385.290497,199.783447 
	C380.018799,196.659683 374.394104,194.543121 373.193420,187.702209 
	C372.114624,181.556030 375.148499,175.017944 380.093567,173.859970 
	C386.715881,172.309235 393.847015,176.646561 394.517761,183.476456 
	C395.159760,190.013489 394.656342,196.662994 394.656342,203.291946 
	C390.324249,203.718872 388.328674,200.949509 385.290497,199.783447 
z"/>
<path fill="#000000" opacity="1.000000" stroke="none" 
	d="
M616.800537,642.995117 
	C615.646179,632.262085 614.043518,622.113647 609.757874,612.548035 
	C606.778320,605.897705 602.130066,601.047424 595.821533,597.407288 
	C581.961853,589.410156 568.143066,581.298645 557.325806,569.132385 
	C553.444275,564.766846 549.752136,560.252930 546.933105,555.114014 
	C546.102356,553.599731 544.750244,552.150635 545.310364,550.057983 
	C547.717468,549.539429 548.490540,551.638855 549.633118,552.804138 
	C555.931030,559.226929 562.023376,565.832214 569.493042,571.006226 
	C574.215942,574.277649 579.199768,576.772095 584.794495,578.086365 
	C588.934143,579.058899 590.791687,577.720093 590.651733,573.414856 
	C590.525024,569.515381 589.050354,565.969543 587.222473,562.558228 
	C581.885864,552.598572 574.539612,544.239624 566.513306,536.412231 
	C565.442566,535.367981 564.424561,534.260986 563.475342,533.106445 
	C563.214417,532.789124 563.290710,532.194580 563.157715,531.402100 
	C566.053345,531.101440 567.896851,532.902100 569.809082,534.281067 
	C584.411804,544.811584 596.497070,557.976318 603.767456,574.248169 
	C611.188599,590.857544 624.970276,595.749878 640.513550,598.714050 
	C669.770752,604.293640 698.504456,600.153992 727.065857,593.447205 
	C736.688538,591.187683 734.521179,590.690369 739.261047,598.801025 
	C739.764282,599.662109 740.155396,600.587830 740.637756,601.461975 
	C747.098755,613.171875 747.043457,611.496033 734.974426,615.017212 
	C713.772461,621.203003 692.211853,624.967224 669.997131,624.399048 
	C660.290466,624.150757 650.744019,623.030029 641.312805,620.818237 
	C639.522522,620.398315 637.794067,619.942688 635.492371,620.871155 
	C636.798096,627.391785 638.208496,633.811951 639.355652,640.278687 
	C643.038818,661.040955 641.960449,681.705017 637.855103,702.288818 
	C636.226746,710.453186 634.140137,718.488464 631.562561,726.412598 
	C630.635193,729.263611 629.380310,730.379150 626.521301,729.016418 
	C621.861572,726.795532 617.201904,724.573792 612.516296,722.408508 
	C609.792786,721.149902 609.832825,719.250671 610.496033,716.635193 
	C615.716370,696.049255 618.770874,675.192017 617.714966,653.879639 
	C617.542419,650.395813 617.135193,646.923584 616.800537,642.995117 
z"/>
<path fill="#000000" opacity="1.000000" stroke="none" 
	d="
M662.981323,651.765503 
	C662.416016,650.517273 661.943298,649.624023 661.666504,648.673767 
	C661.265930,647.298340 660.245239,645.795898 661.729675,644.521729 
	C662.927368,643.493713 664.282715,644.250244 665.528625,644.605896 
	C669.605408,645.769836 673.233398,647.788696 676.237122,650.774902 
	C682.568054,657.068909 690.364014,659.920044 699.061157,660.769592 
	C716.698303,662.492493 725.106873,669.773315 728.617859,687.171265 
	C730.634888,697.166138 733.134705,706.938416 737.378418,716.234436 
	C737.964294,717.517761 738.981140,718.842285 738.169067,720.532959 
	C736.166321,721.594604 734.736328,720.006592 733.207031,719.274780 
	C723.567261,714.661377 713.686951,710.922241 703.077515,709.035583 
	C689.682556,706.653503 682.225037,698.508789 679.946472,683.181580 
	C678.400635,672.783630 675.782227,663.368042 666.686890,656.887573 
	C665.152527,655.794312 664.318848,653.717468 662.981323,651.765503 
M713.086121,683.774475 
	C710.046265,677.343445 704.380859,675.614075 697.924133,675.343018 
	C696.399902,675.279053 694.761353,675.315918 694.446045,677.296692 
	C693.242920,684.855713 696.789490,694.560303 706.174377,695.565735 
	C714.796814,696.489502 714.799622,696.517944 713.907715,687.932678 
	C713.788147,686.781799 713.574280,685.640747 713.086121,683.774475 
z"/>
<path fill="#000000" opacity="1.000000" stroke="none" 
	d="
M684.750183,538.349976 
	C689.541321,547.194214 691.616089,556.742554 695.785522,565.444336 
	C696.794678,567.550354 696.284607,568.862366 694.001038,569.623352 
	C684.910217,572.652527 676.913757,577.585754 669.241394,583.289856 
	C662.760986,588.107788 657.380493,586.529297 654.003601,579.116455 
	C651.183716,572.926270 649.129150,566.386902 646.297791,560.202698 
	C644.532288,556.346558 641.953186,552.862915 639.843201,549.383484 
	C640.790527,547.271484 642.559998,547.691711 643.900146,547.359131 
	C652.056824,545.334839 659.474609,541.705261 666.651672,537.418762 
	C675.077026,532.386719 679.034546,532.621948 684.750183,538.349976 
M676.458130,563.934021 
	C678.270935,562.988159 680.228149,562.000793 679.337830,559.465881 
	C678.133911,556.038086 677.325012,552.432190 675.261108,549.352844 
	C673.800049,547.172729 671.769653,545.297668 669.125061,545.854370 
	C663.331482,547.073914 657.874146,549.340088 652.782593,552.109802 
	C653.130066,555.062012 654.777161,556.813660 655.935791,558.785706 
	C663.109619,570.995728 663.578918,571.112427 676.458130,563.934021 
z"/>
<path fill="#000000" opacity="1.000000" stroke="none" 
	d="
M573.089722,679.012817 
	C569.122192,677.191162 565.408752,675.693481 561.915039,673.792114 
	C554.762817,669.899414 553.502625,666.067078 556.982117,658.597107 
	C560.414001,651.229309 564.528320,644.172729 566.266846,636.087891 
	C566.671143,634.207825 566.211975,632.021362 567.907654,630.341614 
	C568.284790,630.308289 568.883728,630.057434 569.209717,630.255615 
	C577.088440,635.046326 585.743591,637.960449 594.425537,640.832336 
	C596.792175,641.615173 599.063721,642.674316 601.014343,644.292053 
	C605.311462,647.856018 606.471497,652.383728 603.510925,657.116028 
	C598.398010,665.288574 592.917542,673.218018 589.810913,682.474121 
	C588.828735,685.400574 586.914734,685.514465 584.306274,684.139893 
	C580.786743,682.285217 577.073364,680.798523 573.089722,679.012817 
M588.101318,656.710938 
	C590.552429,652.929382 589.005676,649.951050 585.886536,647.712585 
	C581.086182,644.267517 576.071106,641.121643 570.859375,637.657593 
	C569.697998,642.096497 568.646790,646.077881 567.615234,650.064331 
	C565.013916,660.116638 566.144165,661.721130 575.712219,665.845093 
	C580.662842,667.978882 583.434021,667.219727 585.256165,662.228027 
	C585.877686,660.525513 586.922424,658.977356 588.101318,656.710938 
z"/>
</svg>